<svg width="1070" height="602" viewBox="0 0 1070 602" fill="none" xmlns="http://www.w3.org/2000/svg">
<g clip-path="url(#clip0_449_1603)">
<path d="M848.999 421.111C852.584 424.708 856.817 426.506 861.699 426.506C866.733 426.506 871.042 424.708 874.627 421.111C878.212 417.513 880.004 413.266 880.004 408.368C880.004 403.47 878.212 399.184 874.627 395.51C871.042 391.837 866.733 390 861.699 390C856.817 390 852.584 391.837 848.999 395.51C845.414 399.184 843.622 403.47 843.622 408.368C843.622 413.266 845.414 417.513 848.999 421.111Z" fill="white"/>
<path d="M462.976 468.074C462.976 468.45 462.671 468.755 462.295 468.755H437.119V516.511C437.119 520.491 438.111 523.399 440.094 525.236C442.077 527.073 444.975 528.106 448.789 528.336C452.278 528.546 456.533 528.532 461.554 528.293L461.683 528.287L461.915 528.276L462.259 528.258C462.649 528.238 462.976 528.549 462.976 528.939V554.475C462.976 554.822 462.715 555.113 462.371 555.151C462.203 555.169 462.034 555.188 461.909 555.201C442.185 557.311 428.24 555.359 420.072 549.344C411.758 543.221 407.601 532.277 407.601 516.511V468.755H388.375C387.999 468.755 387.694 468.45 387.694 468.074V440.966C387.694 440.59 387.999 440.285 388.375 440.285H407.601V421.323C407.601 420.784 407.92 420.295 408.413 420.077L436.163 407.822C436.613 407.624 437.119 407.953 437.119 408.445V440.285H462.295C462.671 440.285 462.976 440.59 462.976 440.966V468.074Z" fill="white"/>
<path d="M516.501 460.029C519.247 452.682 523.785 447.171 530.116 443.498C535.909 440.136 542.31 438.312 549.317 438.027C549.656 438.013 550.175 438.003 550.594 437.997C550.973 437.991 551.282 438.297 551.282 438.675V469.83C551.282 470.48 550.717 470.981 550.069 470.922C541.557 470.15 533.914 472.029 527.141 476.56C520.048 481.305 516.501 489.188 516.501 500.208V554.401C516.501 554.777 516.196 555.082 515.82 555.082H487.664C487.288 555.082 486.983 554.777 486.983 554.401V440.964C486.983 440.588 487.288 440.283 487.664 440.283H515.82C516.196 440.283 516.501 440.588 516.501 440.964V460.029Z" fill="white"/>
<path fill-rule="evenodd" clip-rule="evenodd" d="M656.074 440.282C655.698 440.282 655.393 440.586 655.393 440.962V453.828C646.545 442.654 634.113 437.067 618.095 437.067C602.84 437.067 589.76 442.922 578.852 454.631C567.945 466.341 562.492 480.691 562.492 497.681C562.492 514.671 567.945 529.021 578.852 540.731C589.76 552.44 602.84 558.295 618.095 558.295C634.113 558.295 646.545 552.708 655.393 541.534V554.4C655.393 554.776 655.698 555.08 656.074 555.08H684.23C684.606 555.08 684.911 554.776 684.911 554.4V440.962C684.911 440.586 684.606 440.282 684.23 440.282H656.074ZM600.931 521.101C606.881 527.071 614.432 530.056 623.585 530.056C632.738 530.056 640.327 527.033 646.352 520.987C652.378 514.941 655.391 507.173 655.391 497.682C655.391 488.192 652.378 480.424 646.352 474.378C640.327 468.332 632.738 465.309 623.585 465.309C614.432 465.309 606.881 468.332 600.931 474.378C594.982 480.424 592.007 488.192 592.007 497.682C592.007 507.173 594.982 514.979 600.931 521.101Z" fill="white"/>
<path fill-rule="evenodd" clip-rule="evenodd" d="M813.117 454.631C802.21 442.922 789.052 437.067 773.645 437.067C757.628 437.067 745.271 442.654 736.576 453.828V440.962C736.576 440.586 736.271 440.282 735.895 440.282H707.739C707.363 440.282 707.058 440.586 707.058 440.962V600.319C707.058 600.695 707.363 601 707.739 601H735.895C736.271 601 736.576 600.695 736.576 600.319V541.534C745.271 552.708 757.628 558.295 773.645 558.295C789.052 558.295 802.21 552.44 813.117 540.731C824.024 529.021 829.477 514.671 829.477 497.681C829.477 480.691 824.024 466.341 813.117 454.631ZM745.498 521.101C751.447 527.071 758.998 530.056 768.151 530.056C777.304 530.056 784.893 527.033 790.919 520.987C796.944 514.941 799.957 507.173 799.957 497.682C799.957 488.192 796.944 480.424 790.919 474.378C784.893 468.332 777.304 465.309 768.151 465.309C758.998 465.309 751.447 468.332 745.498 474.378C739.548 480.424 736.574 488.192 736.574 497.682C736.574 507.173 739.548 514.979 745.498 521.101Z" fill="white"/>
<path d="M847.738 555.083C847.362 555.083 847.057 554.778 847.057 554.402V440.965C847.057 440.589 847.362 440.284 847.738 440.284H875.894C876.27 440.284 876.575 440.589 876.575 440.965V554.402C876.575 554.778 876.27 555.083 875.894 555.083H847.738Z" fill="white"/>
<path d="M320.839 480.346C316.796 478.433 314.775 475.946 314.775 472.884C314.775 469.976 316.033 467.68 318.55 465.996C321.067 464.313 324.233 463.471 328.046 463.471C335.359 463.471 340.884 466.331 344.619 472.052C344.88 472.451 345.387 472.612 345.823 472.419L370.727 461.364C371.098 461.199 371.244 460.749 371.037 460.4C370.763 459.936 370.401 459.33 370.161 458.952C365.892 452.218 360.37 447.202 353.446 443.381C345.818 439.172 337.352 437.067 328.046 437.067C315.69 437.067 305.355 440.32 297.041 446.825C288.727 453.33 284.57 462.246 284.57 473.573C284.57 481.073 286.592 487.311 290.634 492.285C294.677 497.26 299.596 500.895 305.393 503.191C311.19 505.487 316.987 507.4 322.784 508.931C328.58 510.462 333.5 512.184 337.543 514.097C341.585 516.01 343.606 518.498 343.606 521.559C343.606 528.141 338.343 531.432 327.818 531.432C317.798 531.432 310.855 527.716 306.988 520.286C306.656 519.647 305.896 519.355 305.238 519.648L280.404 530.689C280.054 530.844 279.901 531.258 280.067 531.603C280.168 531.811 280.274 532.029 280.351 532.184C289.03 549.591 304.852 558.295 327.818 558.295C340.937 558.295 351.882 555.119 360.653 548.766C369.425 542.414 373.811 533.345 373.811 521.559C373.811 513.753 371.789 507.247 367.747 502.043C363.704 496.839 358.785 493.127 352.988 490.908C347.191 488.688 341.394 486.851 335.598 485.397C329.801 483.943 324.881 482.26 320.839 480.346Z" fill="white"/>
<path d="M5 463.493C5 428.848 5 411.526 15.7628 400.763C26.5257 390 43.8482 390 78.4933 390H143.507C178.152 390 195.474 390 206.237 400.763C217 411.526 217 428.848 217 463.493V528.507C217 563.152 217 580.474 206.237 591.237C195.474 602 178.152 602 143.507 602H78.4933C43.8482 602 26.5257 602 15.7628 591.237C5 580.474 5 563.152 5 528.507V463.493Z" fill="#4945FF"/>
<path fill-rule="evenodd" clip-rule="evenodd" d="M151.28 454.307H79.9067V490.7H116.3V527.093L152.693 527.093V455.72C152.693 454.939 152.061 454.307 151.28 454.307Z" fill="white"/>
<rect x="114.887" y="490.7" width="1.41333" height="1.41333" fill="white"/>
<path d="M79.9067 490.7H114.887C115.667 490.7 116.3 491.333 116.3 492.114V527.094H81.3201C80.5395 527.094 79.9067 526.461 79.9067 525.68V490.7Z" fill="#9593FF"/>
<path d="M116.3 527.093H152.693L117.506 562.28C117.061 562.725 116.3 562.41 116.3 561.781V527.093Z" fill="#9593FF"/>
<path d="M79.9066 490.7H45.2193C44.5897 490.7 44.2744 489.939 44.7196 489.494L79.9066 454.307V490.7Z" fill="#9593FF"/>
<path d="M1058.48 440H953.524C950.473 440 948 443.754 948 448.386V547.614C948 552.246 950.473 556 953.524 556H1058.48C1061.53 556 1064 552.246 1064 547.614V448.386C1064 443.754 1061.53 440 1058.48 440Z" fill="#4945FF"/>
<path d="M1025.87 478.615H999.353V490.345C1000.49 489.098 1002.07 488.078 1004.11 487.285C1006.15 486.492 1008.36 486.095 1010.74 486.095C1014.99 486.095 1018.51 487.058 1021.28 488.985C1024.12 490.912 1026.19 493.405 1027.49 496.465C1028.79 499.525 1029.44 502.84 1029.44 506.41C1029.44 513.04 1027.57 518.31 1023.83 522.22C1020.09 526.073 1014.82 528 1008.02 528C1003.49 528 999.552 527.235 996.208 525.705C992.865 524.118 990.287 521.937 988.473 519.16C986.66 516.383 985.668 513.182 985.498 509.555H999.693C1000.03 511.312 1000.86 512.785 1002.16 513.975C1003.46 515.108 1005.25 515.675 1007.51 515.675C1010.18 515.675 1012.16 514.825 1013.46 513.125C1014.77 511.425 1015.42 509.158 1015.42 506.325C1015.42 503.548 1014.74 501.423 1013.38 499.95C1012.02 498.477 1010.04 497.74 1007.43 497.74C1005.5 497.74 1003.92 498.222 1002.67 499.185C1001.42 500.092 1000.6 501.31 1000.2 502.84H986.178V465.865H1025.87V478.615Z" fill="white"/>
</g>
<defs>
<clipPath id="clip0_449_1603">
<rect width="1070" height="602" fill="white"/>
</clipPath>
</defs>
</svg>
